<svg preserveAspectRatio="none" overflow="visible" style="display: block;" width="63" height="35" viewBox="0 0 63 35" fill="none" xmlns="http://www.w3.org/2000/svg">
<path id="Ellipse 131" d="M30.75 18.25V34.2441C22.4546 34.1351 14.9976 32.2224 9.59082 29.2188C4.31257 26.2864 1.12691 22.4051 0.783203 18.25H30.75ZM62.2168 18.25C61.8731 22.4051 58.6874 26.2864 53.4092 29.2188C48.0024 32.2224 40.5454 34.1351 32.25 34.2441V18.25H62.2168ZM32.25 0.754883C40.5454 0.863956 48.0024 2.77755 53.4092 5.78125C58.6874 8.71361 61.8731 12.5949 62.2168 16.75H32.25V0.754883ZM30.75 16.75H0.783203C1.12691 12.5949 4.31257 8.71361 9.59082 5.78125C14.9976 2.77755 22.4546 0.863956 30.75 0.754883V16.75Z" stroke="black" stroke-width="1.5"/>
</svg>
